<?xml version="1.0" encoding="UTF-8"?>
<svg id="Capa_6" data-name="Capa 6" xmlns="http://www.w3.org/2000/svg" viewBox="0 0 2986 1073">
  <defs>
    <style>
      .cls-1 {
        fill: #fff;
      }

      .cls-2 {
        fill: none;
      }

      .cls-3 {
        fill: #007730;
      }

      .cls-4 {
        fill: #ccc;
      }
    </style>
  </defs>
  <path class="cls-1" d="M1030.14,160.82h-10.39v-10.91h265.05c42.62,0,78.74,6.59,108.36,19.75,29.62,13.17,52.66,29.88,69.12,50.16,16.45,20.27,28.24,41.67,35.34,64.18,7.1,22.53,10.66,44.7,10.66,66.53,0,27.72-5.81,54.31-17.41,79.78-11.61,25.46-29.45,47.38-53.53,65.74-24.09,18.37-54.14,30.85-90.17,37.42v2.08c45.73,22.18,88,66.18,126.81,132.01l69.12,116.93c31.18,52.32,56.21,85.41,75.1,99.26,18.88,13.86,37.5,21.66,55.87,23.39v8.32h-139.28c-5.89-7.62-11.43-14.98-16.63-22.09-5.2-7.09-10.74-14.63-16.63-22.61-3.47-5.19-8.57-13.07-15.33-23.65-6.76-10.57-10.83-16.54-12.21-17.93l-91.47-151.24c-18.37-30.83-37.16-55.87-56.39-75.1-19.23-19.23-37.16-33-53.79-41.32-16.63-8.32-31.62-13.51-44.95-15.59-13.34-2.08-29.02-3.12-47.03-3.12v280.13c0,54.4,27.72,82.46,83.15,84.19v8.32h-243.75v-8.32c15.24-.69,28.76-3.54,40.54-8.57,11.77-5.02,21.57-13.69,29.36-25.98,7.79-12.3,11.69-28.85,11.69-49.63V243.97c0-30.49-7.46-51.97-22.35-64.44-14.9-12.48-31.18-18.71-48.85-18.71ZM1180.34,522.54h43.65c45.74,0,83.24-6.58,112.52-19.75,29.28-13.16,50.5-31.96,63.66-56.39,13.16-24.43,19.75-54.31,19.75-89.65,0-29.45-5.89-58.29-17.67-86.54-11.78-28.23-31.79-51.97-60.03-71.2-28.25-19.23-66.26-28.85-114.08-28.85-19.41,0-35.34,1.56-47.81,4.68v347.69Z"/>
  <path class="cls-1" d="M2312.89,146.48v8.84c-19.41,2.43-35.52,9.01-48.33,19.75-12.82,10.74-23.74,24.69-32.74,41.84-9.01,17.15-19.23,39.94-30.66,68.34-1.74,1.74-3.47,5.89-5.2,12.48l-221.4,634.57h-7.28l-260.9-686.54c0-1.38-.7-3.46-2.08-6.24-10.05-29.44-23.31-50.93-39.76-64.44-16.46-13.51-36.99-20.09-61.59-19.75v-8.84h251.54v8.84c-21.14,2.08-38.12,6.24-50.93,12.47-12.82,6.24-19.23,21.14-19.23,44.7,0,6.23,2.77,19.06,8.32,38.45.69,1.74,1.3,3.56,1.82,5.46.52,1.91.95,3.38,1.3,4.42l201.13,537.38h2.08l172.54-500.48c12.12-34.3,18.19-60.11,18.19-77.44,0-27.37-5.81-44.69-17.41-51.97-11.61-7.28-28.85-11.6-51.71-12.99v-8.84h192.3Z"/>
  <path class="cls-1" d="M2402.53,157.27v-8.84h456.31v120.57h-7.28c0-64.44-42.96-96.66-128.89-96.66h-159.55v347.69h140.32c27.71,0,52.49-4.5,74.32-13.51,21.83-9.01,34.3-29.62,37.42-61.85h7.79v173.59h-7.79c-3.12-19.75-9.01-34.9-17.67-45.48-8.66-10.56-17.24-17.58-25.73-21.05-8.49-3.46-16.03-5.19-22.61-5.19-12.47-2.08-25.47-3.12-38.98-3.12h-147.08v271.81c0,20.45,3.9,38.12,11.69,53.01,7.8,14.9,25.9,22.35,54.31,22.35h113.82c27.37,0,49.89-3.98,67.56-11.95,17.67-7.96,31.61-19.05,41.84-33.26,10.21-14.2,18.79-31.36,25.73-51.45h7.28l-26.51,120.05h-456.31v-8.32h10.39c16.28,0,32.22-6.58,47.81-19.75,15.59-13.16,23.39-34.64,23.39-64.44V244.58c0-23.56-5.29-43.99-15.85-61.33-10.57-17.32-29.02-25.98-55.35-25.98h-10.39Z"/>
  <g>
    <rect class="cls-2" x="545.06" y="709.53" width="31.6" height="31.6"/>
    <rect class="cls-2" x="545.28" y="757.61" width="31.6" height="31.6"/>
    <polygon class="cls-2" points="496.08 758.06 496.08 789.66 502.47 789.66 527.68 789.66 527.68 758.06 502.41 758.06 496.08 758.06"/>
    <polygon class="cls-2" points="527.45 741.58 527.45 709.98 502.32 709.98 495.85 709.98 495.85 741.58 502.38 741.58 527.45 741.58"/>
    <path class="cls-2" d="M663.31,195.31c-44.65-18.54-86.66-27.82-126.06-27.82-30.53,0-62.22,5.01-95.04,15.02-32.82,10.02-64.75,28.32-95.78,54.9-31.02,26.59-56.55,64.02-76.57,112.27-20.03,48.27-30.03,107.86-30.03,178.77,0,62.38,8.29,116.78,24.87,163.23,4.45,12.47,9.35,24.33,14.7,35.58l.51-243.42,25.9-4.95,1.9,194.94,17.81-.18-1.93-198.16,30.26-5.78,1.51,154.38,17.81-.17-1.54-157.61,23.62-4.51-.23,211.99-61.19,23.97,4.17,112.47c1.31,1.28,2.64,2.53,3.96,3.77,1.31,1.23,2.62,2.44,3.95,3.63.35.32.71.64,1.06.95,1.31,1.18,2.63,2.34,3.95,3.47,1.31,1.13,2.63,2.25,3.94,3.34.35.3.71.59,1.06.88,1.3,1.08,2.61,2.14,3.93,3.18,1.3,1.04,2.62,2.07,3.93,3.07l-4.37-118,35.57-13.93,23.59-9.24,72.49-28.39,11.18-4.38,36.7-14.38,104.51,40.94h.02s75.01,29.39,75.01,29.39l-4.3,115.97c1.32-1.02,2.63-2.06,3.93-3.1,1.32-1.06,2.63-2.13,3.94-3.22.36-.3.71-.59,1.06-.89,1.32-1.1,2.63-2.22,3.94-3.37,1.32-1.14,2.64-2.31,3.95-3.5.36-.32.71-.64,1.06-.97,1.31-1.19,2.61-2.39,3.9-3.61.02-.02.04-.04.06-.05,1.33-1.26,2.65-2.53,3.95-3.83l4.09-110.2-100.55-39.39-92.51-36.24-12.05-4.72-23.35,7.72-13.21-251.71,141.52-33.36-.39,318.31.64-318.31,130.51,33.62v56.98l-77.64-11.48c-15.64-2.31-29.67,9.86-29.57,25.68l.07,11.01,107.14,16.89v36.01l-75.92-11.23c-15.64-2.31-29.67,9.86-29.57,25.68l.07,11.02,105.42,16.62v38.36l-76.78-11.36c-15.64-2.31-29.67,9.86-29.57,25.68l.07,11.01,106.28,16.75v132.39l-.13.99c11.85-18.56,22.3-39.61,31.37-63.15,17.88-46.45,26.83-103.17,26.83-170.13,0-96.52-17.07-172.02-51.22-226.52-34.14-54.49-73.53-91.02-118.18-109.57ZM491.09,636.15l-72.51,28.41.1-201.13,72.66,22.08-.25,150.64Z"/>
    <polygon class="cls-1" points="515.57 368.52 515.41 624.97 538.93 617.41 550.98 622.13 643.48 658.37 643.87 340.06 515.57 368.52"/>
    <path class="cls-4" d="M774.63,631.3l-106.28-16.75-.07-11.01c-.1-15.82,13.92-27.99,29.57-25.68l76.78,11.36v-38.36l-105.42-16.62-.07-11.02c-.1-15.81,13.92-27.99,29.57-25.68l75.92,11.23v-36.01l-107.14-16.89-.07-11.01c-.1-15.81,13.92-27.99,29.57-25.68l77.64,11.48v-56.98l-130.51-33.62-.64,318.31,100.55,39.39-4.09,110.2c10.27-10.18,19.82-21.64,28.65-34.4,2-2.89,3.97-5.86,5.9-8.88l.13-.99v-132.39Z"/>
    <path class="cls-1" d="M395,673.79l.23-211.99-23.62,4.51,1.54,157.61-17.81.17-1.51-154.38-30.26,5.78,1.93,198.16-17.81.18-1.9-194.94-25.9,4.95-.51,243.42c14.58,30.63,32.49,56.69,53.75,78.18,1.6,1.62,3.22,3.22,4.84,4.79l-4.17-112.47,61.19-23.97Z"/>
    <polygon class="cls-4" points="418.57 664.55 491.09 636.15 491.34 485.51 418.68 463.43 418.57 664.55"/>
    <path class="cls-3" d="M716.07,867.2l5.45-1.65.05-1.35c-.35.2-.7.39-1.05.58-1.48.82-2.97,1.62-4.46,2.42Z"/>
    <path class="cls-1" d="M643.45,685.15h-.02s-104.51-40.95-104.51-40.95l-36.7,14.38-11.18,4.38-72.49,28.39-23.59,9.24-35.57,13.93,4.37,118c10.04,7.7,20.38,14.54,31.04,20.51,7.72,4.33,15.61,8.22,23.67,11.66,3.53,1.51,7.09,2.93,10.69,4.26,7.18,2.67,14.43,5.06,21.73,7.18,16.94,4.91,34.19,8.35,51.76,10.31,9.75,1.09,19.6,1.72,29.54,1.9,2.01.05,4.01.07,6.03.07,6.14,0,12.29-.19,18.46-.6,26.51-1.69,53.28-7.04,80.3-16.05,1.3-.43,2.6-.88,3.92-1.33.72-.25,1.44-.5,2.15-.76.06-.02.11-.04.16-.06,25.22-9,48.87-22.05,70.93-39.12l4.3-115.97-75.01-29.38ZM495.85,709.98h31.6v31.6h-31.6v-31.6ZM527.68,789.66h-31.6v-31.6h31.6v31.6ZM545.06,709.53h31.6v31.6h-31.6v-31.6ZM576.89,789.21h-31.6v-31.6h31.6v31.6Z"/>
    <path class="cls-1" d="M533.1,910.77l1.79-.21c-.6,0-1.19-.02-1.79-.02v.23Z"/>
    <path class="cls-1" d="M435.84,897.56h.01l2.13.65,1.05.12h.01l.24.03c-2.35-.61-4.69-1.23-7.03-1.88l3.59,1.08Z"/>
    <path class="cls-1" d="M544.74,910.77v-.25c-.64.01-1.28.02-1.92.03l1.92.22Z"/>
    <path class="cls-1" d="M414.39,891.01c-3.09-1.03-6.16-2.1-9.22-3.22-.34-.12-.67-.24-1-.37-.42-.15-.83-.31-1.25-.46-.09-.03-.18-.07-.27-.1v.69l.17.02,11.56,3.5v.15l1.57,1.39,2.25.21v-.56c-.49-.16-.98-.32-1.47-.48-.78-.25-1.57-.51-2.35-.77Z"/>
    <path class="cls-1" d="M395.02,883.96l.14.03s-.09-.04-.14-.06v.03Z"/>
    <path class="cls-1" d="M888.36,373.82c-20.69-47.27-49.18-88.14-85.43-122.61-36.28-34.47-77.23-60.82-122.88-79.04-45.62-18.22-93.24-27.33-142.8-27.33s-99.05,9.52-145.5,28.57c-46.46,19.04-87.83,45.97-124.1,80.75-36.27,34.8-64.5,75.6-84.7,122.38-20.19,46.79-30.29,96.77-30.29,149.94,0,69.27,16.99,133.29,50.97,192.04,33.3,57.6,78.65,103.59,136.07,138,1.18.7,2.35,1.4,3.54,2.1.12.07.25.14.37.21,1.3.76,2.59,1.51,3.9,2.25.35.2.7.4,1.05.6,1.3.74,2.6,1.46,3.9,2.18,7.18,3.95,14.45,7.65,21.81,11.11,6.85,3.21,13.77,6.21,20.77,8.98.05.02.09.04.14.06,1.22.49,2.45.97,3.68,1.43,1.27.49,2.54.97,3.82,1.44.09.04.18.07.27.1.42.15.83.31,1.25.46.34.13.67.25,1,.37,3.06,1.11,6.13,2.18,9.22,3.22.78.26,1.56.52,2.35.77.49.16.98.32,1.47.48,4.65,1.5,9.33,2.9,14.05,4.21,2.34.65,4.68,1.28,7.03,1.88.67.17,1.34.35,2.01.51.17.04.33.08.49.12,1.86.47,3.71.92,5.58,1.35,27.22,6.37,55.46,9.77,84.71,10.18.34,0,.68.01,1.03.02.6,0,1.19.02,1.79.02,1.11,0,2.23.01,3.34.01,1.53,0,3.06-.01,4.58-.03.64,0,1.28-.02,1.92-.03.34,0,.69-.01,1.03-.02,26.8-.47,52.69-3.47,77.68-9,1.01-.22,2.01-.45,3.02-.68,2.76-.64,5.51-1.3,8.26-2,.76-.19,1.51-.38,2.26-.58,20.07-5.26,39.53-12.18,58.4-20.8,6.97-3.18,13.87-6.59,20.68-10.24,1.49-.79,2.98-1.6,4.46-2.42.35-.19.7-.39,1.05-.58,1.3-.72,2.6-1.46,3.9-2.19,1.3-.75,2.61-1.51,3.9-2.27.35-.2.7-.41,1.05-.62.28-.16.56-.33.84-.5,1.02-.61,2.05-1.23,3.06-1.85,1.31-.79,2.61-1.59,3.9-2.4,54.82-34.15,98.37-79.27,130.67-135.35,33.65-58.43,50.48-121.62,50.48-189.58,0-56.47-10.34-108.34-31.02-155.62ZM805.87,701.53c-9.07,23.54-19.52,44.58-31.37,63.15-1.93,3.03-3.9,5.99-5.9,8.88-8.83,12.75-18.38,24.22-28.65,34.4-1.31,1.3-2.63,2.57-3.95,3.83-.02.02-.04.04-.06.05-1.29,1.22-2.59,2.43-3.9,3.61-.35.33-.71.65-1.06.97-1.31,1.18-2.63,2.35-3.95,3.5-1.31,1.14-2.62,2.26-3.94,3.37-.35.3-.7.6-1.06.89-1.31,1.09-2.62,2.16-3.94,3.22-1.3,1.05-2.62,2.08-3.93,3.1-22.06,17.07-45.71,30.12-70.93,39.12-.06.02-.11.04-.16.06-.72.26-1.43.51-2.15.76-1.31.46-2.61.9-3.92,1.33-27.03,9.01-53.8,14.36-80.3,16.05-6.17.4-12.32.6-18.46.6-2.02,0-4.02-.02-6.03-.07-9.94-.18-19.8-.81-29.54-1.9-17.57-1.96-34.82-5.4-51.76-10.31-7.31-2.12-14.55-4.51-21.73-7.18-3.6-1.33-7.16-2.75-10.69-4.26-8.05-3.43-15.94-7.32-23.67-11.66-10.66-5.98-21-12.82-31.04-20.51-1.32-1.01-2.63-2.03-3.93-3.07-1.32-1.04-2.63-2.11-3.93-3.18-.35-.28-.71-.58-1.06-.88-1.32-1.09-2.64-2.21-3.94-3.34-1.32-1.14-2.64-2.29-3.95-3.47-.36-.31-.71-.63-1.06-.95-1.32-1.19-2.64-2.4-3.95-3.63-1.33-1.24-2.65-2.49-3.96-3.77-1.62-1.57-3.24-3.16-4.84-4.79-21.26-21.49-39.17-47.55-53.75-78.18-5.35-11.24-10.25-23.1-14.7-35.58-16.58-46.45-24.87-100.86-24.87-163.23,0-70.91,10-130.5,30.03-178.77,20.02-48.25,45.55-85.67,76.57-112.27,31.02-26.59,62.95-44.88,95.78-54.9,32.83-10.01,64.52-15.02,95.04-15.02,39.4,0,81.41,9.28,126.06,27.82,44.65,18.55,84.04,55.08,118.18,109.57,34.15,54.5,51.22,130,51.22,226.52,0,66.97-8.95,123.68-26.83,170.13Z"/>
  </g>
</svg>